<svg width="138" height="60" viewBox="0 0 138 60" fill="none" xmlns="http://www.w3.org/2000/svg">
<rect width="60" height="60" rx="25.12" fill="#3C2875"/>
<rect width="9.99919" height="29.9976" transform="translate(15.1992 15.36)" fill="#FCFCFD"/>
<path d="M35.1982 35.3584H44.0348C44.6769 35.3584 45.1974 35.8789 45.1974 36.5211V44.1949C45.1974 44.837 44.6769 45.3576 44.0348 45.3576H36.3609C35.7188 45.3576 35.1982 44.837 35.1982 44.1949V35.3584Z" fill="#FFC857"/>
<g clip-path="url(#clip0_4131_625)">
<rect width="9.99919" height="29.9976" transform="translate(45.1992 15.36) rotate(90)" fill="#F4F4F4" fill-opacity="0.7"/>
<rect width="5.81333" height="11.6267" transform="translate(39.3857 15.36) rotate(90)" fill="#FCFCFD"/>
</g>
<rect width="9.99919" height="19.9984" transform="translate(35.1982 35.3584) rotate(-180)" fill="#F4F4F4" fill-opacity="0.7"/>
<path d="M70 16.2273H79.4711C80.9366 16.2273 82.2652 16.5373 83.4568 17.1572C84.6621 17.7633 85.6208 18.6588 86.333 19.8435C87.0589 21.0145 87.4219 22.4472 87.4219 24.1417C87.4219 25.8224 87.0863 27.2138 86.4152 28.3159C85.7578 29.418 84.9634 30.2514 84.032 30.8162C83.1007 31.3673 82.2378 31.6704 81.4434 31.7255L88.1615 43.5041H84.1758L77.8892 31.9734H73.5131V43.5041H70V16.2273ZM73.5131 29.3491H78.2384C79.8546 29.3491 81.19 28.9427 82.2446 28.1299C83.2993 27.3171 83.8266 26.0153 83.8266 24.2244C83.8266 22.4335 83.2993 21.1454 82.2446 20.3601C81.2037 19.5749 79.8751 19.1823 78.259 19.1823H73.5131V29.3491Z" fill="#3C2875"/>
<path d="M106.249 43.5041V40.1978C106.139 40.5422 105.817 41.0175 105.283 41.6236C104.762 42.2298 104.043 42.7808 103.126 43.2768C102.222 43.7589 101.153 44 99.9208 44C98.3594 44 96.9418 43.628 95.668 42.8841C94.4079 42.1402 93.4012 41.1001 92.6479 39.7638C91.9083 38.4138 91.5385 36.8364 91.5385 35.0317C91.5385 33.2271 91.9083 31.6566 92.6479 30.3203C93.4012 28.9702 94.4079 27.9232 95.668 27.1793C96.9418 26.4216 98.3594 26.0428 99.9208 26.0428C101.14 26.0428 102.194 26.2632 103.085 26.7041C103.989 27.1449 104.708 27.6546 105.242 28.2332C105.79 28.8118 106.112 29.3077 106.207 29.721V26.5387H109.741V43.5041H106.249ZM95.0722 35.0317C95.0722 36.2578 95.3393 37.3186 95.8735 38.214C96.4076 39.1095 97.0993 39.8052 97.9485 40.3011C98.8113 40.7833 99.729 41.0244 100.701 41.0244C101.742 41.0244 102.674 40.7764 103.496 40.2804C104.317 39.7845 104.968 39.0888 105.447 38.1934C105.927 37.2841 106.166 36.2303 106.166 35.0317C106.166 33.8332 105.927 32.7862 105.447 31.8908C104.968 30.9816 104.317 30.279 103.496 29.783C102.674 29.2733 101.742 29.0185 100.701 29.0185C99.729 29.0185 98.8113 29.2664 97.9485 29.7624C97.0993 30.2583 96.4076 30.954 95.8735 31.8494C95.3393 32.7449 95.0722 33.8057 95.0722 35.0317Z" fill="#3C2875"/>
<path d="M114.908 43.5041V26.5387H118.483V43.5041H114.908ZM116.737 20.7321C116.093 20.7321 115.538 20.5048 115.072 20.0502C114.62 19.5818 114.394 19.0239 114.394 18.3764C114.394 17.7289 114.62 17.171 115.072 16.7026C115.538 16.2342 116.093 16 116.737 16C117.161 16 117.552 16.1102 117.908 16.3306C118.277 16.551 118.572 16.8403 118.791 17.1985C119.01 17.5429 119.12 17.9355 119.12 18.3764C119.12 19.0239 118.887 19.5818 118.421 20.0502C117.956 20.5048 117.394 20.7321 116.737 20.7321Z" fill="#3C2875"/>
<path d="M123.29 26.5387H138L127.913 40.7764H137.589V43.5041H122.14L132.227 29.2458H123.29V26.5387Z" fill="#3C2875"/>
<defs>
<clipPath id="clip0_4131_625">
<rect width="9.99919" height="29.9976" fill="white" transform="translate(45.1992 15.36) rotate(90)"/>
</clipPath>
</defs>
</svg>
